<?xml version="1.0" encoding="utf-8"?>
<!-- Generator: Adobe Illustrator 19.0.0, SVG Export Plug-In . SVG Version: 6.00 Build 0)  -->
<svg version="1.1" id="圖層_1" xmlns="http://www.w3.org/2000/svg" xmlns:xlink="http://www.w3.org/1999/xlink" x="0px" y="0px"
	 viewBox="-185 401.2 175 39.7" style="enable-background:new -185 401.2 175 39.7;" xml:space="preserve">
<style type="text/css">
	.st0{enable-background:new    ;}
</style>
<g id="XMLID_66_">
	<g class="st0">
		<path d="M-157.3,427.6c0.1,0.1,0.1,0.2,0.1,0.3c-1.9,2.8-5,5.4-9.5,5.4c-4.1,0-6.4-1.2-8.4-3c-2.4-2.1-3.5-5.8-3.5-8.6
			c0-3.1,1-6.1,3.3-8.6c1.7-1.9,4.5-3.4,8.3-3.4c2.9,0,5.3,0.9,6.5,1.5c0.4,0.3,0.6,0.3,0.6,0l0.3-0.8c0.1-0.2,0.1-0.2,0.5-0.2
			c0.4,0,0.4,0.1,0.4,0.5c0,0.6,0.6,5.7,0.8,6.7c0,0.2,0,0.3-0.1,0.3l-0.6,0.2c-0.2,0.1-0.3-0.1-0.4-0.3c-0.4-1.2-1.2-2.8-2.5-4.2
			c-1.4-1.3-3.1-2.4-5.6-2.4c-5.1,0-7.2,4.6-7.2,9.2c0,2,0.6,5.8,2.9,8.3c2.1,2.2,4,2.5,5.5,2.5c3.5,0,6.3-1.8,7.6-3.7
			c0.2-0.2,0.3-0.3,0.4-0.2L-157.3,427.6z"/>
		<path d="M-136.4,412.2c2.4,2,4.4,5.1,4.4,9.5c0,2.4-0.6,4.9-2.4,7c-2,2.6-4.8,4.5-9.6,4.5c-1.9,0-4.7-0.6-7.2-2.1
			c-2.3-1.4-4.7-4.9-4.7-9.5c0-1.9,0.5-5,2.9-7.9c2.8-3.5,6.3-4.1,9-4.1C-141.6,409.6-139,410.1-136.4,412.2z M-148.7,412.8
			c-2,1.9-2.9,5.2-2.9,7.7c0,8.3,5.1,11.3,7.8,11.3c6.5,0,7.5-7.2,7.5-9.9c0-7-4.7-10.9-7.8-10.9
			C-144.6,411-146.5,410.7-148.7,412.8z"/>
		<path d="M-126.2,418.3c0,5.4,0.3,9.9,0.3,10.9c0.1,1.6,0.4,2.4,1.6,2.4h0.8c0.3,0,0.3,0.1,0.3,0.3v0.7c0,0.2,0,0.3-0.3,0.3
			c-0.3,0-2.2-0.1-3.5-0.1c-0.8,0-3,0.1-3.3,0.1c-0.1,0-0.2-0.1-0.2-0.3v-0.8c0-0.1,0.1-0.2,0.2-0.2h1.1c0.8,0,1.3-0.7,1.4-2.7
			c0-0.6,0.2-5.1,0.2-10.2v-4.1c0-1.9-1.1-3.4-2.5-3.4h-1c-0.1,0-0.2-0.1-0.2-0.2v-0.9c0-0.1,0.1-0.2,0.2-0.2c0.2,0,0.4,0,1,0.1
			c0.6,0,1.4,0,2.8,0c0.5,0,1,0,1.4-0.1c0.4,0,0.7,0,0.9,0c0.4,0,0.6,0.1,0.8,0.3c0.3,0.3,6.6,8.2,7.2,9.1c0.4,0.5,5.4,6.7,6,7.4
			h0.1v-3.3c0-2.8,0-4.4-0.1-6c-0.1-1.2-0.2-4.4-0.4-4.9c-0.2-0.8-0.9-1.2-1.7-1.2h-1c-0.2,0-0.2-0.1-0.2-0.3v-0.7
			c0-0.2,0-0.3,0.3-0.3c0.4,0,1.4,0.1,3.6,0.1c1.9,0,2.7-0.1,3.1-0.1c0.3,0,0.3,0.1,0.3,0.2v0.7c0,0.2-0.1,0.3-0.2,0.3h-0.9
			c-0.6,0-1,0.5-1.1,1.7c-0.2,2.2-0.5,7.6-0.5,10.8v8.4c0,0.4,0,0.9-0.4,0.9c-0.4,0-0.8-0.3-1.1-0.5c-0.3-0.3-2-2.3-4-4.7
			c-2.2-2.8-4.7-5.8-5.1-6.3c-0.4-0.4-5.6-6.8-6-7.3h-0.2V418.3z"/>
		<path d="M-97.8,411.5h-0.9c-1,0-3.3,0-4.7,0.4c-1,0.4-2.2,2.6-2.8,3.6c-0.1,0.2-0.2,0.3-0.4,0.2l-0.6-0.2
			c-0.1-0.1-0.2-0.2-0.1-0.3c0.3-1.2,1.4-5.4,1.5-5.9c0.1-0.4,0.3-0.6,0.4-0.6c0.2,0,0.3,0.1,0.5,0.3c0.6,0.6,1.3,0.8,2.2,0.8
			c1.7,0.1,3.1,0.2,6.2,0.2h1.7c3.5,0,4.9-0.1,6.3-0.2c0.6,0,1.8-0.5,2.3-0.8c0.3-0.2,0.4-0.3,0.6-0.3s0.3,0.1,0.3,0.5
			c0.1,0.6,0.7,4.5,1,6.1c0,0.2,0,0.3-0.1,0.3l-0.6,0.2c-0.1,0-0.2-0.1-0.3-0.3c-0.4-0.9-1.6-2.9-2.5-3.6c-0.9-0.5-3.8-0.6-4.9-0.6
			h-0.9v17.1c0,2.4,0.3,3.1,1.1,3.1h1.9c0.1,0,0.2,0.1,0.2,0.3v0.7c0,0.2-0.1,0.3-0.3,0.3c-0.3,0-1.3-0.1-4.8-0.1
			c-3.3,0-4.6,0.1-5.1,0.1c-0.2,0-0.3-0.1-0.3-0.3v-0.7c0-0.2,0.1-0.3,0.2-0.3h1.8c0.6,0,1-0.4,1.1-0.9c0.1-0.8,0.1-10.6,0.1-11.3
			V411.5z"/>
		<path d="M-78.5,424c-0.3,0.7-1.8,5.3-2,6.2c-0.1,0.3-0.1,0.5-0.1,0.7c0,0.4,0.5,0.8,1.2,0.8h1.3c0.3,0,0.3,0.1,0.3,0.2v0.8
			c0,0.2-0.1,0.3-0.3,0.3c-0.4,0-1.8-0.1-4-0.1c-2.4,0-3.1,0.1-3.5,0.1c-0.2,0-0.2-0.2-0.2-0.4v-0.6c0-0.2,0.1-0.3,0.2-0.3h1
			c0.9,0,1.5-0.4,2-1.4c0.3-0.6,2.6-6.3,3.6-9c0.2-0.6,2.8-7.6,3.1-8.4c0.1-0.3,0.3-0.9,0.1-1.1c-0.1-0.1-0.2-0.3-0.2-0.4
			c0-0.1,0.1-0.3,0.3-0.3c1-0.3,2.8-1.2,3.2-1.6c0.2-0.2,0.3-0.3,0.5-0.3c0.2,0,0.3,0.4,0.4,0.6c0.6,2,3.1,9.2,3.6,11.2
			c0.8,2.5,2.8,8.4,3.3,9.3c0.6,1.1,1.4,1.5,2,1.5h1c0.2,0,0.3,0.1,0.3,0.2v0.7c0,0.2-0.1,0.4-0.3,0.4c-0.6,0-1.2-0.1-4.7-0.1
			c-2.7,0-3.8,0.1-4.5,0.1c-0.3,0-0.3-0.2-0.3-0.4v-0.6c0-0.2,0.1-0.3,0.3-0.3h0.8c0.9,0,1.2-0.3,1-1.2c-0.3-1.2-1.5-5.2-1.9-6.4
			H-78.5z M-71.4,422.7c-0.3-0.9-2.5-8.2-2.7-8.9c-0.1-0.4-0.2-0.6-0.3-0.6c-0.2,0-0.3,0.1-0.4,0.4c-0.1,0.4-3,8.3-3.2,9H-71.4z"/>
		<path d="M-39.7,427.6c0.1,0.1,0.1,0.2,0.1,0.3c-1.9,2.8-5,5.4-9.5,5.4c-4.1,0-6.4-1.2-8.4-3c-2.4-2.1-3.5-5.8-3.5-8.6
			c0-3.1,1-6.1,3.3-8.6c1.7-1.9,4.5-3.4,8.3-3.4c2.9,0,5.3,0.9,6.5,1.5c0.4,0.3,0.6,0.3,0.6,0l0.3-0.8c0.1-0.2,0.1-0.2,0.5-0.2
			s0.4,0.1,0.4,0.5c0,0.6,0.6,5.7,0.8,6.7c0,0.2,0,0.3-0.1,0.3l-0.6,0.2c-0.2,0.1-0.3-0.1-0.4-0.3c-0.4-1.2-1.2-2.8-2.5-4.2
			c-1.4-1.3-3.1-2.4-5.6-2.4c-5.1,0-7.2,4.6-7.2,9.2c0,2,0.6,5.8,2.9,8.3c2.1,2.2,4,2.5,5.5,2.5c3.5,0,6.3-1.8,7.6-3.7
			c0.2-0.2,0.3-0.3,0.4-0.2L-39.7,427.6z"/>
		<path d="M-30.7,411.5h-0.9c-1,0-3.3,0-4.7,0.4c-1,0.4-2.2,2.6-2.8,3.6c-0.1,0.2-0.2,0.3-0.4,0.2l-0.6-0.2
			c-0.1-0.1-0.2-0.2-0.1-0.3c0.3-1.2,1.4-5.4,1.5-5.9c0.1-0.4,0.3-0.6,0.4-0.6c0.2,0,0.3,0.1,0.5,0.3c0.6,0.6,1.3,0.8,2.2,0.8
			c1.7,0.1,3.1,0.2,6.2,0.2h1.7c3.5,0,4.9-0.1,6.3-0.2c0.6,0,1.8-0.5,2.3-0.8c0.3-0.2,0.4-0.3,0.6-0.3c0.2,0,0.3,0.1,0.3,0.5
			c0.1,0.6,0.7,4.5,1,6.1c0,0.2,0,0.3-0.1,0.3l-0.6,0.2c-0.1,0-0.2-0.1-0.3-0.3c-0.4-0.9-1.6-2.9-2.5-3.6c-0.9-0.5-3.8-0.6-4.9-0.6
			h-0.9v17.1c0,2.4,0.3,3.1,1.1,3.1h1.9c0.1,0,0.2,0.1,0.2,0.3v0.7c0,0.2-0.1,0.3-0.3,0.3c-0.3,0-1.3-0.1-4.8-0.1
			c-3.3,0-4.6,0.1-5.1,0.1c-0.2,0-0.3-0.1-0.3-0.3v-0.7c0-0.2,0.1-0.3,0.2-0.3h1.8c0.6,0,1-0.4,1.1-0.9c0.1-0.8,0.1-10.6,0.1-11.3
			V411.5z"/>
	</g>
</g>
</svg>
