<?xml version="1.0" encoding="utf-8"?>
<!-- Generator: Adobe Illustrator 19.0.0, SVG Export Plug-In . SVG Version: 6.00 Build 0)  -->
<svg version="1.1" id="圖層_1" xmlns="http://www.w3.org/2000/svg" xmlns:xlink="http://www.w3.org/1999/xlink" x="0px" y="0px"
	 viewBox="-152 400 291 42.9" style="enable-background:new -152 400 291 42.9;" xml:space="preserve">
<style type="text/css">
	.st0{enable-background:new    ;}
	.st1{fill:#040000;}
</style>
<g id="XMLID_66_">
	<g class="st0">
		<path class="st1" d="M-115.9,431.8c0.1,0.1,0.2,0.3,0.1,0.4c-2.6,3.7-6.7,7.3-12.9,7.3c-5.5,0-8.7-1.6-11.3-4.1
			c-3.2-2.9-4.7-7.9-4.7-11.7c0-4.2,1.4-8.3,4.4-11.6c2.3-2.5,6.1-4.6,11.2-4.6c4,0,7.2,1.2,8.7,2.1c0.6,0.3,0.8,0.3,0.9,0l0.3-1.1
			c0.1-0.3,0.2-0.3,0.7-0.3s0.6,0.1,0.6,0.7c0,0.8,0.9,7.7,1,9c0,0.3,0,0.4-0.2,0.4l-0.8,0.3c-0.2,0.1-0.3-0.1-0.5-0.4
			c-0.5-1.6-1.6-3.7-3.4-5.6c-1.9-1.8-4.2-3.2-7.5-3.2c-6.9,0-9.8,6.2-9.8,12.5c0,2.7,0.8,7.8,4,11.2c2.9,3,5.4,3.4,7.4,3.4
			c4.8,0,8.5-2.4,10.3-5c0.2-0.3,0.4-0.4,0.5-0.3L-115.9,431.8z"/>
		<path class="st1" d="M-103.7,427.5c0,2.6,0.1,7.4,0.2,8.1c0.1,0.9,0.4,1.6,1.1,1.6h2.2c0.3,0,0.3,0.1,0.3,0.3v1
			c0,0.3-0.1,0.4-0.5,0.4c-0.6,0-1.4-0.1-5.9-0.1c-4.2,0-5.3,0.1-5.7,0.1c-0.3,0-0.3-0.1-0.3-0.4v-1c0-0.2,0.1-0.3,0.3-0.3h1.5
			c1,0,1.6-0.3,1.6-1.4c0.1-4.3,0.1-8.4,0.1-12.5V412c0-1.5-0.6-2.2-1.4-2.2h-1.7c-0.2,0-0.3-0.1-0.3-0.3v-1.2
			c0-0.2,0.1-0.3,0.3-0.3c0.3,0,1.7,0.1,5.9,0.1c2.4,0,6.4-0.1,7.7-0.1c3.5,0,6.1,1.2,7.9,2.7c1.6,1.4,2.3,3.2,2.3,4.8
			c0,5.5-3.3,7.7-8,8.5v0.2c1.2,0.4,2,1.2,2.6,2c0.5,0.7,3.2,4.8,3.5,5.3c0.3,0.4,3,4.3,3.7,4.9c0.8,0.7,2,0.8,3.1,0.8
			c0.3,0,0.3,0.1,0.3,0.3v0.9c0,0.3-0.1,0.4-0.3,0.4c-0.3,0-1.5-0.1-4.2-0.1c-1.2,0-2.9,0.1-3.8,0.1c-0.5-0.4-1.3-1.6-1.9-2.5
			c-0.8-1.2-2.5-4.3-2.9-5c-0.4-0.8-1.6-2.8-2.3-3.7c-1.1-1.5-2.1-2.7-3.9-2.7c-0.2,0-0.9,0-1.4,0.1V427.5z M-103.6,423.7
			c0.6,0.1,1.1,0.2,1.6,0.2c6.7,0,8.1-5.5,8.1-7.4c0-2-0.8-3.9-1.9-4.8c-1.6-1.4-3.5-1.9-5.7-1.9c-0.7,0-1.2,0-1.6,0.3
			c-0.3,0.2-0.5,0.7-0.5,1.3L-103.6,423.7z"/>
		<path class="st1" d="M-72.7,426.3c0,2.3,0.1,6.6,0.1,7.4c0,2.3,0.8,3.1,1.7,3.4c0.7,0.2,1.7,0.3,3.4,0.3c0.8,0,2.8-0.1,3.6-0.2
			c0.8-0.1,2.4-0.5,3.5-1.5c0.8-0.7,3.2-3.5,4-4.6c0.2-0.2,0.3-0.3,0.5-0.2l0.7,0.4c0.1,0.1,0.2,0.2,0.1,0.4l-2.1,6.5
			c-0.1,0.4-0.4,0.6-1,0.6c-0.2,0-1.2,0-3.9-0.1c-2.7,0-7.2,0-14.4,0c-1.6,0-2.8,0-3.7,0c-0.9,0-1.5,0.1-1.9,0.1
			c-0.3,0-0.3-0.1-0.3-0.3v-1c0-0.3,0.1-0.3,0.4-0.3h1.5c2,0,2.2-0.3,2.2-1.9v-10.3v-4.2c0-3.5-0.1-8.9-0.2-9.5
			c-0.2-1.2-0.6-1.5-1.9-1.5h-1.6c-0.2,0-0.3-0.1-0.3-0.3v-1.1c0-0.2,0-0.3,0.3-0.3c1,0,2.5,0.2,6.1,0.1h1.2
			c1.9,0,11.9-0.1,13.8-0.1c0.7,0,1.5,0,1.7,0s0.3,0.1,0.3,0.3c0.2,0.6,1.8,6.4,2,6.9c0.1,0.3,0,0.4-0.1,0.5l-0.8,0.3
			c-0.1,0-0.3,0-0.4-0.2c-0.2-0.3-3.7-4.2-4.8-4.8c-0.9-0.5-2.1-1.1-3.3-1.1l-6.6-0.2l-0.1,12.5c1.3,0,4.4-0.1,4.9-0.2
			c1-0.2,1.5-0.5,2-1.6c0.3-0.6,0.7-1.6,0.7-2.4c0-0.3,0.2-0.3,0.3-0.3l1.1,0.1c0.2,0,0.3,0.1,0.3,0.3c-0.1,0.7-0.1,3.5-0.1,4.7
			c0,1.7,0.2,3.8,0.3,4.8c0,0.2-0.1,0.3-0.3,0.3l-1,0.2c-0.2,0-0.3,0-0.3-0.3c-0.2-0.7-0.5-1.6-0.7-2.2c-0.4-0.9-1.2-1.5-2.2-1.6
			c-1.6-0.2-3.6-0.3-5-0.3L-72.7,426.3z"/>
		<path class="st1" d="M-45.2,427c-0.3,1-2.5,7.2-2.7,8.3c-0.1,0.3-0.1,0.7-0.1,0.9c0,0.6,0.7,1,1.6,1h1.8c0.3,0,0.4,0.1,0.4,0.2
			v1.1c0,0.3-0.1,0.4-0.3,0.4c-0.6,0-2.4-0.1-5.5-0.1c-3.2,0-4.2,0.1-4.8,0.1c-0.3,0-0.3-0.3-0.3-0.6v-0.8c0-0.3,0.1-0.3,0.3-0.3
			h1.3c1.2,0,2-0.6,2.8-1.9c0.4-0.8,3.5-8.6,4.8-12.2c0.3-0.9,3.8-10.2,4.2-11.3c0.1-0.4,0.3-1.2,0.1-1.5c-0.1-0.1-0.3-0.4-0.3-0.5
			c0-0.2,0.1-0.3,0.4-0.4c1.4-0.3,3.8-1.6,4.3-2.2c0.3-0.3,0.4-0.4,0.6-0.4c0.3,0,0.4,0.5,0.5,0.8c0.8,2.7,4.2,12.4,4.9,15.1
			c1,3.4,3.8,11.4,4.4,12.6c0.8,1.5,1.9,2,2.8,2h1.4c0.3,0,0.3,0.1,0.3,0.3v0.9c0,0.3-0.1,0.5-0.4,0.5c-0.8,0-1.6-0.1-6.4-0.1
			c-3.6,0-5.1,0.1-6.1,0.1c-0.3,0-0.4-0.3-0.4-0.5v-0.9c0-0.3,0.1-0.3,0.3-0.3h1.1c1.2,0,1.6-0.4,1.3-1.6c-0.3-1.6-2.1-7.1-2.6-8.7
			H-45.2z M-35.6,425.3c-0.4-1.3-3.4-11.1-3.6-12c-0.2-0.5-0.3-0.8-0.4-0.8c-0.3,0-0.4,0.2-0.6,0.6c-0.2,0.6-4.1,11.2-4.4,12.2
			H-35.6z"/>
		<path class="st1" d="M-13.2,410.1h-1.2c-1.4,0-4.5,0-6.3,0.6c-1.4,0.6-3,3.5-3.9,4.9c-0.1,0.2-0.3,0.4-0.5,0.3l-0.9-0.3
			c-0.2-0.1-0.2-0.2-0.2-0.4c0.4-1.6,1.9-7.4,2.1-8c0.1-0.6,0.3-0.8,0.5-0.8c0.3,0,0.4,0.2,0.7,0.4c0.9,0.9,1.7,1.1,2.9,1.1
			c2.3,0.1,4.2,0.3,8.4,0.3h2.3c4.8,0,6.6-0.2,8.6-0.3c0.8,0,2.5-0.6,3.1-1.1c0.3-0.3,0.5-0.4,0.8-0.4s0.3,0.2,0.4,0.7
			c0.1,0.8,1,6.1,1.3,8.2c0,0.3,0,0.3-0.2,0.4L4,416c-0.2,0-0.3-0.1-0.4-0.3c-0.6-1.2-2.2-4-3.4-4.8c-1.2-0.7-5.1-0.8-6.7-0.8h-1.2
			v23.1c0,3.3,0.4,4.2,1.5,4.2h2.5c0.2,0,0.3,0.2,0.3,0.4v0.9c0,0.3-0.1,0.4-0.4,0.4c-0.4,0-1.8-0.1-6.5-0.1c-4.4,0-6.2,0.1-6.8,0.1
			c-0.3,0-0.3-0.1-0.3-0.4v-1c0-0.3,0.1-0.3,0.3-0.3h2.5c0.9,0,1.4-0.5,1.4-1.2c0.1-1.1,0.1-14.4,0.1-15.2V410.1z"/>
		<path class="st1" d="M17,424.9c0,0.4,0.1,10.4,0.1,10.9c0,1.4,0.7,1.6,1.7,1.6h1.8c0.2,0,0.3,0.1,0.3,0.3v1.1
			c0,0.3-0.2,0.3-0.4,0.3c-0.5,0-2.2-0.1-6.3-0.1c-4.3,0-6.2,0.1-6.7,0.1c-0.3,0-0.3-0.1-0.3-0.3v-1.2c0-0.2,0.1-0.3,0.3-0.3h1.7
			c0.9,0,1.8-0.1,2-1.3c0.1-0.6,0.2-9.9,0.2-12.3v-3c0-1-0.1-8.8-0.1-9.4c-0.1-1-0.6-1.5-1.8-1.5H7.3c-0.3,0-0.3-0.1-0.3-0.3v-1.1
			c0-0.2,0.1-0.3,0.3-0.3c0.5,0,2.8,0.1,7,0.1c4.2,0,5.5-0.1,6.1-0.1c0.3,0,0.3,0.2,0.3,0.4v1c0,0.3-0.2,0.3-0.3,0.3h-1.6
			c-1,0-1.6,0.3-1.6,1.2c0,0.4-0.1,9.9-0.1,10.5V424.9z"/>
		<path class="st1" d="M43.8,408.5c0-0.3,0.1-0.3,0.3-0.3c0.3,0,2.3,0.1,5.1,0.1c3.6,0,4.8-0.1,5.1-0.1c0.3,0,0.3,0.1,0.3,0.3v1.1
			c0,0.2-0.1,0.3-0.3,0.3h-1c-1,0-2.2,0.4-3.2,2c-1.4,2.3-4,9-5.2,11.9c-0.9,1.9-6.1,14.5-6.5,15.4c-0.2,0.3-0.5,0.6-0.9,0.6
			c-0.5,0-0.7-0.5-1-1c-1.5-3.7-5.1-13.6-6.6-17.6c-1.1-3.1-3-8.7-3.5-9.9c-0.4-1-0.9-1.4-1.9-1.4h-1c-0.2,0-0.3-0.1-0.3-0.4v-1
			c0-0.3,0.1-0.3,0.3-0.3c0.4,0,1.9,0.1,6.4,0.1c4.1,0,6.1-0.1,6.4-0.1c0.3,0,0.4,0.1,0.4,0.3v1c0,0.3-0.1,0.4-0.3,0.4h-2.1
			c-1.1,0-1.8,0.4-1.8,1.1c0,0.3,0,0.9,0.1,1.5c0.3,1.6,1.9,6.7,2.8,9.2c0.6,1.6,2.9,8.5,3.6,10.8h0.1v-0.1c1-2.4,3.8-9.6,4.2-10.9
			c0.7-2,3.4-8.6,3.4-10.3c0-0.5-0.4-1.2-1.6-1.2h-1.2c-0.2,0-0.3-0.2-0.3-0.4V408.5z"/>
		<path class="st1" d="M65,424.9c0,0.4,0.1,10.4,0.1,10.9c0,1.4,0.7,1.6,1.7,1.6h1.8c0.2,0,0.3,0.1,0.3,0.3v1.1
			c0,0.3-0.2,0.3-0.4,0.3c-0.5,0-2.2-0.1-6.3-0.1c-4.3,0-6.2,0.1-6.7,0.1c-0.3,0-0.3-0.1-0.3-0.3v-1.2c0-0.2,0.1-0.3,0.3-0.3h1.7
			c0.9,0,1.8-0.1,2-1.3c0.1-0.6,0.2-9.9,0.2-12.3v-3c0-1-0.1-8.8-0.1-9.4c-0.1-1-0.6-1.5-1.8-1.5h-2.3c-0.3,0-0.3-0.1-0.3-0.3v-1.1
			c0-0.2,0.1-0.3,0.3-0.3c0.5,0,2.8,0.1,7,0.1c4.2,0,5.5-0.1,6.1-0.1c0.3,0,0.3,0.2,0.3,0.4v1c0,0.3-0.2,0.3-0.3,0.3h-1.6
			c-1,0-1.6,0.3-1.6,1.2c0,0.4-0.1,9.9-0.1,10.5V424.9z"/>
		<path class="st1" d="M83.6,410.1h-1.2c-1.4,0-4.5,0-6.3,0.6c-1.4,0.6-3,3.5-3.9,4.9c-0.1,0.2-0.3,0.4-0.5,0.3l-0.9-0.3
			c-0.2-0.1-0.2-0.2-0.2-0.4c0.4-1.6,1.9-7.4,2.1-8c0.1-0.6,0.3-0.8,0.5-0.8c0.3,0,0.4,0.2,0.7,0.4c0.9,0.9,1.7,1.1,2.9,1.1
			c2.3,0.1,4.2,0.3,8.4,0.3h2.3c4.8,0,6.6-0.2,8.6-0.3c0.8,0,2.5-0.6,3.1-1.1c0.3-0.3,0.5-0.4,0.8-0.4s0.3,0.2,0.4,0.7
			c0.1,0.8,1,6.1,1.3,8.2c0,0.3,0,0.3-0.2,0.4l-0.9,0.3c-0.2,0-0.3-0.1-0.4-0.3c-0.6-1.2-2.2-4-3.4-4.8c-1.2-0.7-5.1-0.8-6.7-0.8
			h-1.2v23.1c0,3.3,0.4,4.2,1.5,4.2h2.5c0.2,0,0.3,0.2,0.3,0.4v0.9c0,0.3-0.1,0.4-0.4,0.4c-0.4,0-1.8-0.1-6.5-0.1
			c-4.4,0-6.2,0.1-6.8,0.1c-0.3,0-0.3-0.1-0.3-0.4v-1c0-0.3,0.1-0.3,0.3-0.3H82c0.9,0,1.4-0.5,1.4-1.2c0.1-1.1,0.1-14.4,0.1-15.2
			V410.1z"/>
		<path class="st1" d="M121.2,430.8c0,1.6,0.1,4.5,0.1,5c0.1,1.4,0.8,1.5,1.7,1.5h1.4c0.2,0,0.3,0.1,0.3,0.3v1
			c0,0.3-0.1,0.4-0.3,0.4c-0.5,0-2.2-0.1-6.1-0.1c-4.2,0-5.6,0.1-6,0.1c-0.2,0-0.3-0.2-0.3-0.4v-1c0-0.2,0.1-0.3,0.3-0.3h1.8
			c1.1,0,1.5-0.4,1.5-1.1c0-0.6,0.1-4,0.1-8v-2.1c-0.7-1.3-7.7-13.8-8.9-15.3c-0.5-0.6-1.5-1-2.2-1h-0.8c-0.3,0-0.3-0.1-0.3-0.3
			v-1.2c0-0.2,0.1-0.3,0.3-0.3c0.3,0,2.4,0.1,5.7,0.1c4.4,0,6-0.1,6.4-0.1c0.3,0,0.3,0.1,0.3,0.3v1c0,0.3-0.1,0.4-0.3,0.4h-1.1
			c-1,0-1.3,0.3-1.2,1.3c0.1,0.8,5.3,10.4,6.4,12.8c1.5-2.4,7.1-11.4,7.1-12.5c0.1-0.8-0.2-1.6-1.5-1.6h-1.1c-0.3,0-0.3-0.1-0.3-0.3
			v-1.1c0-0.2,0.1-0.3,0.3-0.3c0.4,0,2.2,0.1,5.3,0.1c2.8,0,3.7-0.1,4.2-0.1c0.3,0,0.3,0.1,0.3,0.3v1c0,0.3-0.1,0.4-0.3,0.4h-1
			c-0.6,0-1.6,0.3-2.3,1c-0.7,0.8-7.9,11.9-9.5,14.7V430.8z"/>
	</g>
</g>
</svg>
