<?xml version="1.0" encoding="utf-8"?>
<!-- Generator: Adobe Illustrator 19.0.0, SVG Export Plug-In . SVG Version: 6.00 Build 0)  -->
<svg version="1.1" id="圖層_1" xmlns="http://www.w3.org/2000/svg" xmlns:xlink="http://www.w3.org/1999/xlink" x="0px" y="0px"
	 viewBox="-185 401.2 223.7 39.7" style="enable-background:new -185 401.2 223.7 39.7;" xml:space="preserve">
<style type="text/css">
	.st0{enable-background:new    ;}
	.st1{fill:#040000;}
</style>
<g id="XMLID_54_">
	<g class="st0">
		<path class="st1" d="M-153.9,428.7c0.1,0.1,0.2,0.3,0.1,0.4c-2.6,3.7-6.7,7.3-12.9,7.3c-5.5,0-8.7-1.6-11.3-4.1
			c-3.2-2.9-4.7-7.9-4.7-11.7c0-4.2,1.4-8.3,4.4-11.6c2.3-2.5,6.1-4.6,11.2-4.6c4,0,7.2,1.2,8.7,2.1c0.6,0.3,0.8,0.3,0.9,0l0.3-1.1
			c0.1-0.3,0.2-0.3,0.7-0.3s0.6,0.1,0.6,0.7c0,0.8,0.9,7.7,1,9c0,0.3,0,0.4-0.2,0.4l-0.8,0.3c-0.2,0.1-0.3-0.1-0.5-0.4
			c-0.5-1.6-1.6-3.7-3.4-5.6c-1.9-1.8-4.2-3.2-7.5-3.2c-6.9,0-9.8,6.2-9.8,12.5c0,2.7,0.8,7.8,4,11.2c2.9,3,5.4,3.4,7.4,3.4
			c4.8,0,8.5-2.4,10.3-5c0.2-0.3,0.4-0.4,0.5-0.3L-153.9,428.7z"/>
		<path class="st1" d="M-148.3,408.8c0-1.5-0.3-2.2-1.5-2.2h-2c-0.3,0-0.3-0.1-0.3-0.4v-1c0-0.3,0.1-0.3,0.4-0.3
			c0.4,0,2.5,0.1,6.7,0.1c3.6,0,5.7-0.1,6.2-0.1c0.3,0,0.3,0.1,0.3,0.3v1.1c0,0.3-0.1,0.3-0.3,0.3h-1.8c-1.3,0-2.1,0.8-2.1,1.7
			c0,0.5-0.1,3.1-0.1,5.6v5.4c0,2.2,0,5.2,0.1,6.6c0.1,2,0.5,4,1.5,5.4c1.5,2,3.8,2.7,5.9,2.7c2,0,4.4-0.8,5.8-2.1
			c1.6-1.6,2.5-4.2,2.5-7.3v-7.8c0-3.5-0.3-7.3-0.5-8.3c-0.1-1.1-0.8-1.9-1.8-1.9h-1.6c-0.3,0-0.3-0.1-0.3-0.3v-1.1
			c0-0.3,0.1-0.3,0.3-0.3c0.4,0,2.4,0.1,5.3,0.1c2.7,0,4.1-0.1,4.4-0.1c0.4,0,0.4,0.1,0.4,0.3v1c0,0.3,0,0.4-0.3,0.4h-1.6
			c-1.6,0-1.7,1.2-1.8,1.7c-0.1,0.5-0.1,6.6-0.1,7.1c0,0.6-0.1,8.1-0.3,9.9c-0.3,3.5-1.3,6.2-3.6,8.3c-1.8,1.6-4.6,2.7-7.9,2.7
			c-2.1,0-4.6-0.3-6.2-1c-2.5-1-4.2-3-5.1-5.8c-0.6-1.9-0.8-4.8-0.8-10.4V408.8z"/>
		<path class="st1" d="M-116,426.1c0.2,0,0.3,0.1,0.3,0.3c0.1,1.4,0.4,3,1.6,4.9c1.3,2.1,3.5,3.1,5.7,3.1c2.3,0,5.6-1.5,5.6-5.1
			c0-4-1.8-5.3-6.4-7c-1.4-0.5-4.2-1.7-6.3-3.6c-1.5-1.4-2.2-3.5-2.2-6.2c0-2.4,1-4.4,3-6.1c1.7-1.5,3.6-2.1,6.1-2.1
			c2.9,0,4.6,0.7,5.5,1c0.4,0.2,0.7,0.1,0.9-0.1l0.6-0.6c0.2-0.2,0.3-0.3,0.6-0.3s0.3,0.3,0.3,0.7c0,0.7,0.7,6.7,0.7,7.2
			c0,0.2-0.1,0.3-0.3,0.3l-0.7,0.2c-0.2,0-0.3,0-0.4-0.3c-0.4-1.2-1.1-2.9-2.7-4.6c-1.1-1.2-2.5-1.8-4.5-1.8c-3.5,0-4.8,2.8-4.8,4.4
			c0,1.5,0.2,2.8,1.2,3.9c1.1,1.1,3.5,2.2,5.3,2.7c2.5,0.8,4.6,1.6,6.2,3.4c1.4,1.5,2.2,3.3,2.2,6.2c0,5.3-3.5,9.6-9.2,9.6
			c-3.5,0-5.6-0.8-7.4-2.1c-0.5-0.3-0.8-0.5-1-0.5c-0.3,0-0.4,0.3-0.7,0.8c-0.3,0.4-0.4,0.5-0.8,0.5s-0.5-0.3-0.5-0.7
			c0.1-0.5,0.7-7.5,0.8-8c0-0.3,0.1-0.3,0.3-0.3L-116,426.1z"/>
		<path class="st1" d="M-83.9,406.9h-1.2c-1.4,0-4.5,0-6.3,0.6c-1.4,0.6-3,3.5-3.9,4.9c-0.1,0.2-0.3,0.4-0.5,0.3l-0.9-0.3
			c-0.2-0.1-0.2-0.2-0.2-0.4c0.4-1.6,1.9-7.4,2.1-8c0.1-0.6,0.3-0.8,0.5-0.8c0.3,0,0.4,0.2,0.7,0.4c0.9,0.9,1.7,1.1,2.9,1.1
			c2.3,0.1,4.2,0.3,8.4,0.3h2.3c4.8,0,6.6-0.2,8.6-0.3c0.8,0,2.5-0.6,3.1-1.1c0.3-0.3,0.5-0.4,0.8-0.4s0.3,0.2,0.4,0.7
			c0.1,0.8,1,6.1,1.3,8.2c0,0.3,0,0.3-0.2,0.4l-0.9,0.3c-0.2,0-0.3-0.1-0.4-0.3c-0.6-1.2-2.2-4-3.4-4.8c-1.2-0.7-5.1-0.8-6.7-0.8
			h-1.2V430c0,3.3,0.4,4.2,1.5,4.2h2.5c0.2,0,0.3,0.2,0.3,0.4v0.9c0,0.3-0.1,0.4-0.4,0.4c-0.4,0-1.8-0.1-6.5-0.1
			c-4.4,0-6.2,0.1-6.8,0.1c-0.3,0-0.3-0.1-0.3-0.4v-1c0-0.3,0.1-0.3,0.3-0.3h2.5c0.9,0,1.4-0.5,1.4-1.2c0.1-1.1,0.1-14.4,0.1-15.2
			V406.9z"/>
		<path class="st1" d="M-37.2,407.9c3.2,2.6,5.9,6.9,5.9,12.8c0,3.2-0.9,6.6-3.2,9.5c-2.8,3.5-6.5,6.1-13,6.1
			c-2.6,0-6.3-0.8-9.8-2.9c-3.1-1.9-6.3-6.6-6.3-12.8c0-2.6,0.7-6.7,4-10.7c3.8-4.7,8.5-5.5,12.2-5.5
			C-44.2,404.4-40.8,405-37.2,407.9z M-53.8,408.8c-2.6,2.6-3.9,7-3.9,10.5c0,11.2,6.9,15.2,10.6,15.2c8.7,0,10.1-9.7,10.1-13.3
			c0-9.4-6.4-14.8-10.6-14.8C-48.4,406.3-50.9,405.9-53.8,408.8z"/>
		<path class="st1" d="M3.3,420c0-1.3,0-12-0.1-12.2H3c-0.3,0.6-5.8,13.2-6.3,14.4c-0.6,1.4-5.1,11.6-5.3,12c-0.2,0.3-0.5,1-1,1
			c-0.3,0-0.5-0.3-0.7-0.8c-0.2-0.3-5.8-13.8-6.1-14.4c-0.8-2-4.8-11.7-5.3-12.2c-0.2,0.6-0.2,11.5-0.2,12c0,0.5,0,7.9,0.2,10.7
			c0.2,2,0.7,3.6,2.1,3.6h1.9c0.3,0,0.3,0.2,0.3,0.3v1.1c0,0.2-0.1,0.3-0.4,0.3c-0.4,0-1.6-0.1-4.9-0.1c-3.7,0-5.2,0.1-5.6,0.1
			c-0.3,0-0.3-0.1-0.3-0.4v-1.1c0-0.1,0-0.3,0.3-0.3h2c1.5,0,1.9-1.6,2.2-3.1c0.4-3,0.6-13.7,0.6-14.4v-7.4c0-1.6-0.2-2.5-2.1-2.5
			h-1.9c-0.3,0-0.3-0.2-0.3-0.3v-1.2c0-0.1,0.1-0.3,0.3-0.3c0.4,0,1.6,0.1,6.1,0.1c2.1,0,3.3-0.1,3.8-0.1s0.8,0.2,1,0.7
			c1.6,4.1,7.6,18.4,8.9,22c0.4-0.8,3.5-7.9,4.6-10.5c0.8-1.8,4.7-10.7,4.9-11.6c0.1-0.4,0.6-0.5,1.7-0.5c6.3,0,7.8-0.1,8.3-0.1
			c0.2,0,0.3,0.2,0.3,0.4v0.9c0,0.3-0.1,0.4-0.3,0.4H9.8c-1.1,0-1.2,0.8-1.3,1.7c0,1,0,9.6,0,10.7v3c0,2.6,0.1,8.9,0.1,9.6
			c0,1.6,0.4,2.3,1.2,2.3h2.3c0.3,0,0.3,0.2,0.3,0.3v1c0,0.3,0,0.4-0.3,0.4c-0.5,0-2.6-0.1-6.4-0.1c-4.2,0-5.9,0.1-6.5,0.1
			c-0.3,0-0.3-0.2-0.3-0.4v-1c0-0.3,0.1-0.3,0.3-0.3h2.7c0.8,0,1.1-0.3,1.3-1.5c0-0.4,0.1-6.7,0.1-10.1V420z"/>
		<path class="st1" d="M18.3,426.1c0.2,0,0.3,0.1,0.3,0.3c0.1,1.4,0.4,3,1.6,4.9c1.3,2.1,3.5,3.1,5.7,3.1c2.3,0,5.6-1.5,5.6-5.1
			c0-4-1.8-5.3-6.4-7c-1.4-0.5-4.2-1.7-6.3-3.6c-1.5-1.4-2.2-3.5-2.2-6.2c0-2.4,1-4.4,3-6.1c1.7-1.5,3.6-2.1,6.1-2.1
			c2.9,0,4.6,0.7,5.5,1c0.4,0.2,0.7,0.1,0.9-0.1l0.6-0.6c0.2-0.2,0.3-0.3,0.6-0.3s0.3,0.3,0.3,0.7c0,0.7,0.7,6.7,0.7,7.2
			c0,0.2-0.1,0.3-0.3,0.3l-0.7,0.2c-0.2,0-0.3,0-0.4-0.3c-0.4-1.2-1.1-2.9-2.7-4.6c-1.1-1.2-2.5-1.8-4.5-1.8c-3.5,0-4.8,2.8-4.8,4.4
			c0,1.5,0.2,2.8,1.2,3.9c1.1,1.1,3.5,2.2,5.3,2.7c2.5,0.8,4.6,1.6,6.2,3.4c1.4,1.5,2.2,3.3,2.2,6.2c0,5.3-3.5,9.6-9.2,9.6
			c-3.5,0-5.6-0.8-7.4-2.1c-0.5-0.3-0.8-0.5-1-0.5c-0.3,0-0.4,0.3-0.7,0.8s-0.4,0.5-0.8,0.5s-0.5-0.3-0.5-0.7c0.1-0.5,0.7-7.5,0.8-8
			c0-0.3,0.1-0.3,0.3-0.3L18.3,426.1z"/>
	</g>
</g>
</svg>
