<?xml version="1.0" encoding="utf-8"?>
<!-- Generator: Adobe Illustrator 19.0.0, SVG Export Plug-In . SVG Version: 6.00 Build 0)  -->
<svg version="1.1" xmlns="http://www.w3.org/2000/svg" xmlns:xlink="http://www.w3.org/1999/xlink" x="0px" y="0px"
	 viewBox="0 0 18.3 18.4" style="enable-background:new 0 0 18.3 18.4;" xml:space="preserve">
<style type="text/css">
	.st0{fill:#595757;}
	.st1{fill-rule:evenodd;clip-rule:evenodd;fill:#FFFFFF;}
</style>
<g id="圖層_2">
</g>
<g id="圖層_1">
	<circle id="XMLID_137_" class="st0" cx="9.1" cy="9.2" r="8.4"/>
	<g id="Shape_16_">
		<g id="XMLID_17_">
			<path id="XMLID_18_" class="st1" d="M9.5,3.5c-4,0-6.1,2.9-6.1,5.3c0,1.5,0.6,2.8,1.7,3.3c0.2,0.1,0.4,0,0.4-0.2
				c0-0.2,0.1-0.5,0.2-0.7c0.1-0.2,0-0.3-0.1-0.5C5.3,10.3,5.1,9.8,5.1,9c0-2.2,1.6-4.1,4.2-4.1c2.3,0,3.5,1.4,3.5,3.3
				c0,2.5-1.1,4.5-2.7,4.5c-0.9,0-1.6-0.7-1.3-1.6C9,10,9.5,8.9,9.5,8.1c0-0.7-0.4-1.3-1.1-1.3C7.4,6.8,6.7,7.7,6.7,9
				c0,0.8,0.3,1.3,0.3,1.3S6,14.3,5.9,15c-0.1,0.6-0.2,1.3-0.1,1.9c0.3,0.1,0.7,0.3,1,0.4c0.3-0.5,0.7-1.2,0.8-1.8
				c0.1-0.4,0.6-2.3,0.6-2.3c0.3,0.6,1.2,1.1,2.1,1.1c2.7,0,4.6-2.5,4.6-5.8C14.8,5.8,12.7,3.5,9.5,3.5z"/>
		</g>
	</g>
</g>
</svg>
