<?xml version="1.0" encoding="utf-8"?>
<!-- Generator: Adobe Illustrator 19.0.0, SVG Export Plug-In . SVG Version: 6.00 Build 0)  -->
<svg version="1.1" id="圖層_1" xmlns="http://www.w3.org/2000/svg" xmlns:xlink="http://www.w3.org/1999/xlink" x="0px" y="0px"
	 viewBox="-205 401.6 183.3 39.3" style="enable-background:new -205 401.6 183.3 39.3;" xml:space="preserve">
<style type="text/css">
	.st0{enable-background:new    ;}
	.st1{fill:#040000;}
</style>
<g id="XMLID_508_" class="st0">
	<path class="st1" d="M-192.1,425.3c0,2.6,0.1,7.4,0.2,8.1c0.1,0.9,0.4,1.6,1.1,1.6h2.2c0.3,0,0.3,0.1,0.3,0.3v1
		c0,0.3-0.1,0.4-0.5,0.4c-0.6,0-1.4-0.1-5.9-0.1c-4.2,0-5.3,0.1-5.7,0.1c-0.3,0-0.3-0.1-0.3-0.4v-1c0-0.2,0.1-0.3,0.3-0.3h1.5
		c1,0,1.6-0.3,1.6-1.4c0.1-4.3,0.1-8.4,0.1-12.5v-11.4c0-1.5-0.6-2.2-1.4-2.2h-1.7c-0.2,0-0.3-0.1-0.3-0.3v-1.2
		c0-0.2,0.1-0.3,0.3-0.3c0.3,0,1.7,0.1,5.9,0.1c2.4,0,6.4-0.1,7.7-0.1c3.5,0,6.1,1.2,7.9,2.7c1.6,1.4,2.3,3.2,2.3,4.8
		c0,5.5-3.3,7.7-8,8.5v0.2c1.2,0.4,2,1.2,2.6,2c0.5,0.7,3.2,4.8,3.5,5.3c0.3,0.4,3,4.3,3.7,4.9c0.8,0.7,2,0.8,3.1,0.8
		c0.3,0,0.3,0.1,0.3,0.3v0.9c0,0.3-0.1,0.4-0.3,0.4c-0.3,0-1.5-0.1-4.2-0.1c-1.2,0-2.9,0.1-3.8,0.1c-0.5-0.4-1.3-1.6-1.9-2.5
		c-0.8-1.2-2.5-4.3-2.9-5c-0.4-0.8-1.6-2.8-2.3-3.7c-1.1-1.5-2.1-2.7-3.9-2.7c-0.2,0-0.9,0-1.4,0.1V425.3z M-192,421.4
		c0.6,0.1,1.1,0.2,1.6,0.2c6.7,0,8.1-5.5,8.1-7.4c0-2-0.8-3.9-1.9-4.8c-1.6-1.4-3.5-1.9-5.7-1.9c-0.7,0-1.2,0-1.6,0.3
		c-0.3,0.2-0.5,0.7-0.5,1.3L-192,421.4z"/>
	<path class="st1" d="M-162.1,424c0,2.3,0.1,6.6,0.1,7.4c0,2.3,0.8,3.1,1.7,3.4c0.7,0.2,1.7,0.3,3.4,0.3c0.8,0,2.8-0.1,3.6-0.2
		c0.8-0.1,2.4-0.5,3.5-1.5c0.8-0.7,3.2-3.5,4-4.6c0.2-0.2,0.3-0.3,0.5-0.2l0.7,0.4c0.1,0.1,0.2,0.2,0.1,0.4l-2.1,6.5
		c-0.1,0.4-0.4,0.6-1,0.6c-0.2,0-1.2,0-3.9-0.1c-2.7,0-7.2,0-14.4,0c-1.6,0-2.8,0-3.7,0c-0.9,0-1.5,0.1-1.9,0.1
		c-0.3,0-0.3-0.1-0.3-0.3v-1c0-0.3,0.1-0.3,0.4-0.3h1.5c2,0,2.2-0.3,2.2-1.9v-10.3v-4.2c0-3.5-0.1-8.9-0.2-9.5
		c-0.2-1.2-0.6-1.5-1.9-1.5h-1.6c-0.2,0-0.3-0.1-0.3-0.3v-1.1c0-0.2,0-0.3,0.3-0.3c1,0,2.5,0.2,6.1,0.1h1.2c1.9,0,11.9-0.1,13.8-0.1
		c0.7,0,1.5,0,1.7,0s0.3,0.1,0.3,0.3c0.2,0.6,1.8,6.4,2,6.9c0.1,0.3,0,0.4-0.1,0.5l-0.8,0.3c-0.1,0-0.3,0-0.4-0.2
		c-0.2-0.3-3.7-4.2-4.8-4.8c-0.9-0.5-2.1-1.1-3.3-1.1l-6.6-0.2l-0.1,12.5c1.3,0,4.4-0.1,4.9-0.2c1-0.2,1.5-0.5,2-1.6
		c0.3-0.6,0.7-1.6,0.7-2.4c0-0.3,0.2-0.3,0.3-0.3l1.1,0.1c0.2,0,0.3,0.1,0.3,0.3c-0.1,0.7-0.1,3.5-0.1,4.7c0,1.7,0.2,3.8,0.3,4.8
		c0,0.2-0.1,0.3-0.3,0.3l-1,0.2c-0.2,0-0.3,0-0.3-0.3c-0.2-0.7-0.5-1.6-0.7-2.2c-0.4-0.9-1.2-1.5-2.2-1.6c-1.6-0.2-3.6-0.3-5-0.3
		L-162.1,424z"/>
	<path class="st1" d="M-139.9,416.4c0-2.9,0-7.4,0-7.9c-0.1-0.7-0.6-1-1.5-1h-2.2c-0.2,0-0.3-0.1-0.3-0.3v-1.1
		c0-0.3,0.1-0.3,0.3-0.3c0.5,0,2.1,0.1,6.4,0.1c0.8,0,3.3-0.1,4.8-0.1c5.2,0,7.7,0.5,10.2,2.2c2,1.5,3.3,3.9,3.3,6.6
		c0,5.4-4.2,8.7-11.5,8.7c-1.5,0-2.8,0-3.9-0.2v1.9c0,2.1,0,8,0,8.5c0.1,1,0.6,1.4,1.3,1.4h2.4c0.3,0,0.3,0.2,0.3,0.3v1
		c0,0.3,0,0.4-0.3,0.4c-0.6,0-2-0.1-6.7-0.1c-3.8,0-5.5,0.1-6,0.1c-0.3,0-0.3-0.2-0.3-0.3v-1.1c0-0.3,0-0.3,0.3-0.3h1.4
		c1.5,0,1.8-0.2,1.9-1.3c0-0.4,0.1-7.2,0.1-12.2V416.4z M-134.5,421.6c0.8,0.3,2,0.3,3.1,0.3c1.9,0,4.2-1.5,5.2-2.9
		c0.9-1.3,1-2.9,1-4.5c0-5.9-4.8-7.2-6.8-7.2c-0.8,0-1.8,0-2.5,0.3V421.6z"/>
	<path class="st1" d="M-91.1,408.8c3.2,2.6,5.9,6.9,5.9,12.8c0,3.2-0.9,6.6-3.2,9.5c-2.8,3.5-6.5,6.1-13,6.1c-2.6,0-6.3-0.8-9.8-2.9
		c-3.1-1.9-6.3-6.6-6.3-12.8c0-2.6,0.7-6.7,4-10.7c3.8-4.7,8.5-5.5,12.2-5.5C-98.1,405.3-94.7,405.9-91.1,408.8z M-107.7,409.6
		c-2.6,2.6-3.9,7-3.9,10.5c0,11.2,6.9,15.2,10.6,15.2c8.7,0,10.1-9.7,10.1-13.3c0-9.4-6.4-14.8-10.6-14.8
		C-102.3,407.2-104.8,406.8-107.7,409.6z"/>
	<path class="st1" d="M-73.2,425.3c0,2.6,0.1,7.4,0.2,8.1c0.1,0.9,0.4,1.6,1.1,1.6h2.2c0.3,0,0.3,0.1,0.3,0.3v1
		c0,0.3-0.1,0.4-0.5,0.4c-0.6,0-1.4-0.1-5.9-0.1c-4.2,0-5.3,0.1-5.7,0.1c-0.3,0-0.3-0.1-0.3-0.4v-1c0-0.2,0.1-0.3,0.3-0.3h1.5
		c1,0,1.6-0.3,1.6-1.4c0.1-4.3,0.1-8.4,0.1-12.5v-11.4c0-1.5-0.6-2.2-1.4-2.2h-1.7c-0.2,0-0.3-0.1-0.3-0.3v-1.2
		c0-0.2,0.1-0.3,0.3-0.3c0.3,0,1.7,0.1,5.9,0.1c2.4,0,6.4-0.1,7.7-0.1c3.5,0,6.1,1.2,7.9,2.7c1.6,1.4,2.3,3.2,2.3,4.8
		c0,5.5-3.3,7.7-8,8.5v0.2c1.2,0.4,2,1.2,2.6,2c0.5,0.7,3.2,4.8,3.5,5.3c0.3,0.4,3,4.3,3.7,4.9c0.8,0.7,2,0.8,3.1,0.8
		c0.3,0,0.3,0.1,0.3,0.3v0.9c0,0.3-0.1,0.4-0.3,0.4c-0.3,0-1.5-0.1-4.2-0.1c-1.2,0-2.9,0.1-3.8,0.1c-0.5-0.4-1.3-1.6-1.9-2.5
		c-0.8-1.2-2.5-4.3-2.9-5c-0.4-0.8-1.6-2.8-2.3-3.7c-1.1-1.5-2.1-2.7-3.9-2.7c-0.2,0-0.9,0-1.4,0.1V425.3z M-73.1,421.4
		c0.6,0.1,1.1,0.2,1.6,0.2c6.7,0,8.1-5.5,8.1-7.4c0-2-0.8-3.9-1.9-4.8c-1.6-1.4-3.5-1.9-5.7-1.9c-0.7,0-1.2,0-1.6,0.3
		c-0.3,0.2-0.5,0.7-0.5,1.3L-73.1,421.4z"/>
	<path class="st1" d="M-42.2,407.8h-1.2c-1.4,0-4.5,0-6.3,0.6c-1.4,0.6-3,3.5-3.9,4.9c-0.1,0.2-0.3,0.4-0.5,0.3l-0.9-0.3
		c-0.2-0.1-0.2-0.2-0.2-0.4c0.4-1.6,1.9-7.4,2.1-8c0.1-0.6,0.3-0.8,0.5-0.8c0.3,0,0.4,0.2,0.7,0.4c0.9,0.9,1.7,1.1,2.9,1.1
		c2.3,0.1,4.2,0.3,8.4,0.3h2.3c4.8,0,6.6-0.2,8.6-0.3c0.8,0,2.5-0.6,3.1-1.1c0.3-0.3,0.5-0.4,0.8-0.4s0.3,0.2,0.4,0.7
		c0.1,0.8,1,6.1,1.3,8.2c0,0.3,0,0.3-0.2,0.4l-0.9,0.3c-0.2,0-0.3-0.1-0.4-0.3c-0.6-1.2-2.2-4-3.4-4.8c-1.2-0.7-5.1-0.8-6.7-0.8
		h-1.2v23.1c0,3.3,0.4,4.2,1.5,4.2h2.5c0.2,0,0.3,0.2,0.3,0.4v0.9c0,0.3-0.1,0.4-0.4,0.4c-0.4,0-1.8-0.1-6.5-0.1
		c-4.4,0-6.2,0.1-6.8,0.1c-0.3,0-0.3-0.1-0.3-0.4v-1c0-0.3,0.1-0.3,0.3-0.3h2.5c0.9,0,1.4-0.5,1.4-1.2c0.1-1.1,0.1-14.4,0.1-15.2
		V407.8z"/>
</g>
</svg>
