<?xml version="1.0" encoding="utf-8"?>
<!-- Generator: Adobe Illustrator 19.0.0, SVG Export Plug-In . SVG Version: 6.00 Build 0)  -->
<svg version="1.1" id="圖層_1" xmlns="http://www.w3.org/2000/svg" xmlns:xlink="http://www.w3.org/1999/xlink" x="0px" y="0px"
	 viewBox="-185 401.2 297 39.7" style="enable-background:new -185 401.2 297 39.7;" xml:space="preserve">
<g>
	<path d="M-175.8,425.4c0.1,0,0.2,0.1,0.2,0.3c0.1,1,0.3,2.2,1.2,3.6c1,1.5,2.6,2.3,4.2,2.3c1.7,0,4.2-1.1,4.2-3.7
		c0-2.9-1.3-3.9-4.7-5.2c-1-0.4-3.1-1.3-4.7-2.7c-1.1-1-1.6-2.6-1.6-4.6c0-1.8,0.7-3.3,2.2-4.5c1.3-1.1,2.7-1.5,4.5-1.5
		c2.1,0,3.4,0.5,4,0.8c0.3,0.1,0.5,0.1,0.7-0.1l0.4-0.4c0.1-0.1,0.3-0.2,0.4-0.2s0.3,0.2,0.3,0.5c0,0.5,0.5,5,0.5,5.3
		c0,0.1-0.1,0.2-0.2,0.2l-0.5,0.2c-0.1,0-0.3,0-0.3-0.2c-0.3-0.9-0.8-2.2-2-3.4c-0.8-0.9-1.9-1.3-3.3-1.3c-2.6,0-3.6,2-3.6,3.2
		c0,1.1,0.1,2,0.9,2.9c0.8,0.8,2.6,1.6,3.9,2c1.9,0.6,3.4,1.2,4.6,2.5c1,1.1,1.6,2.4,1.6,4.6c0,3.9-2.6,7.1-6.8,7.1
		c-2.6,0-4.2-0.6-5.4-1.5c-0.4-0.3-0.6-0.4-0.8-0.4s-0.3,0.3-0.5,0.6c-0.2,0.3-0.3,0.4-0.6,0.4s-0.4-0.2-0.4-0.5
		c0.1-0.4,0.5-5.6,0.6-6c0-0.2,0.1-0.3,0.2-0.3L-175.8,425.4z"/>
	<path d="M-154.3,423.3c0,1.7,0.1,4.9,0.1,5.4c0,1.7,0.6,2.3,1.3,2.5c0.5,0.1,1.3,0.3,2.5,0.3c0.6,0,2-0.1,2.7-0.1
		c0.6-0.1,1.8-0.4,2.6-1.1c0.6-0.5,2.4-2.6,3-3.4c0.1-0.2,0.2-0.2,0.4-0.1l0.5,0.3c0.1,0.1,0.1,0.2,0.1,0.3l-1.5,4.8
		c-0.1,0.3-0.3,0.5-0.7,0.5c-0.2,0-0.9,0-2.8-0.1c-2,0-5.3,0-10.7,0c-1.2,0-2,0-2.7,0c-0.6,0-1.1,0.1-1.4,0.1
		c-0.2,0-0.3-0.1-0.3-0.3v-0.8c0-0.2,0.1-0.3,0.3-0.3h1.1c1.5,0,1.6-0.2,1.6-1.4v-7.6v-3.1c0-2.6-0.1-6.6-0.1-7
		c-0.1-0.9-0.4-1.1-1.4-1.1h-1.2c-0.1,0-0.2-0.1-0.2-0.2v-0.8c0-0.2,0-0.2,0.2-0.2c0.7,0,1.9,0.1,4.5,0.1h0.9
		c1.4,0,8.8-0.1,10.2-0.1c0.5,0,1.1,0,1.3,0s0.2,0.1,0.3,0.2c0.1,0.4,1.3,4.8,1.5,5.1c0.1,0.2,0,0.3-0.1,0.4l-0.6,0.3
		c-0.1,0-0.2,0-0.3-0.2c-0.1-0.2-2.8-3.1-3.5-3.6c-0.7-0.4-1.5-0.8-2.4-0.8l-4.9-0.1l-0.1,9.2c1,0,3.3-0.1,3.6-0.2
		c0.7-0.1,1.1-0.4,1.5-1.2c0.2-0.4,0.5-1.2,0.5-1.8c0-0.2,0.1-0.3,0.3-0.3l0.8,0.1c0.1,0,0.2,0.1,0.2,0.3c-0.1,0.5-0.1,2.6-0.1,3.5
		c0,1.3,0.1,2.8,0.2,3.5c0,0.2-0.1,0.2-0.3,0.2l-0.7,0.1c-0.1,0-0.2,0-0.3-0.2c-0.1-0.5-0.4-1.2-0.5-1.6c-0.3-0.6-0.9-1.1-1.6-1.2
		c-1.2-0.1-2.7-0.2-3.7-0.2L-154.3,423.3z"/>
	<path d="M-135.2,423.8c-0.3,0.7-1.8,5.3-2,6.2c-0.1,0.3-0.1,0.5-0.1,0.7c0,0.4,0.5,0.8,1.2,0.8h1.3c0.3,0,0.3,0.1,0.3,0.2v0.8
		c0,0.2-0.1,0.3-0.3,0.3c-0.4,0-1.8-0.1-4-0.1c-2.4,0-3.1,0.1-3.5,0.1c-0.2,0-0.2-0.2-0.2-0.4v-0.6c0-0.2,0.1-0.3,0.2-0.3h1
		c0.9,0,1.5-0.4,2-1.4c0.3-0.6,2.6-6.3,3.6-9c0.2-0.6,2.8-7.6,3.1-8.4c0.1-0.3,0.3-0.9,0.1-1.1c-0.1-0.1-0.2-0.3-0.2-0.4
		c0-0.1,0.1-0.3,0.3-0.3c1-0.3,2.8-1.2,3.2-1.6c0.2-0.2,0.3-0.3,0.5-0.3c0.2,0,0.3,0.4,0.4,0.6c0.6,2,3.1,9.2,3.6,11.2
		c0.8,2.5,2.8,8.4,3.3,9.3c0.6,1.1,1.4,1.5,2,1.5h1c0.2,0,0.3,0.1,0.3,0.2v0.7c0,0.2-0.1,0.4-0.3,0.4c-0.6,0-1.2-0.1-4.7-0.1
		c-2.7,0-3.8,0.1-4.5,0.1c-0.3,0-0.3-0.2-0.3-0.4v-0.6c0-0.2,0.1-0.3,0.3-0.3h0.8c0.9,0,1.2-0.3,1-1.2c-0.3-1.2-1.5-5.2-1.9-6.4
		H-135.2z M-128.1,422.5c-0.3-0.9-2.5-8.2-2.7-8.9c-0.1-0.4-0.2-0.6-0.3-0.6c-0.2,0-0.3,0.1-0.4,0.4c-0.1,0.4-3,8.3-3.2,9H-128.1z"
		/>
	<path d="M-111.4,424.2c0,1.9,0.1,5.5,0.1,6c0.1,0.6,0.3,1.2,0.8,1.2h1.6c0.2,0,0.3,0.1,0.3,0.2v0.8c0,0.2-0.1,0.3-0.4,0.3
		c-0.4,0-1.1-0.1-4.4-0.1c-3.1,0-3.9,0.1-4.2,0.1c-0.2,0-0.3-0.1-0.3-0.3v-0.7c0-0.2,0.1-0.3,0.2-0.3h1.1c0.7,0,1.2-0.2,1.2-1.1
		c0.1-3.2,0.1-6.2,0.1-9.2v-8.4c0-1.1-0.4-1.6-1-1.6h-1.2c-0.2,0-0.2-0.1-0.2-0.2v-0.9c0-0.2,0.1-0.2,0.2-0.2c0.2,0,1.2,0.1,4.4,0.1
		c1.8,0,4.7-0.1,5.7-0.1c2.6,0,4.5,0.9,5.8,2c1.2,1,1.7,2.4,1.7,3.6c0,4-2.4,5.7-6,6.3v0.1c0.9,0.3,1.5,0.9,1.9,1.5
		c0.4,0.5,2.4,3.5,2.6,3.9c0.2,0.3,2.2,3.2,2.7,3.6c0.6,0.5,1.5,0.6,2.3,0.6c0.2,0,0.3,0.1,0.3,0.2v0.7c0,0.2-0.1,0.3-0.3,0.3
		c-0.3,0-1.1-0.1-3.1-0.1c-0.9,0-2.1,0.1-2.8,0.1c-0.4-0.3-1-1.2-1.4-1.8c-0.6-0.9-1.8-3.2-2.1-3.7c-0.3-0.6-1.2-2-1.7-2.8
		c-0.8-1.1-1.5-2-2.9-2c-0.1,0-0.7,0-1,0.1V424.2z M-111.4,421.3c0.4,0.1,0.8,0.1,1.2,0.1c5,0,6-4,6-5.5c0-1.5-0.6-2.8-1.4-3.6
		c-1.2-1-2.6-1.4-4.2-1.4c-0.5,0-0.9,0-1.2,0.2c-0.3,0.2-0.4,0.5-0.4,0.9L-111.4,421.3z"/>
	<path d="M-74.8,427.4c0.1,0.1,0.1,0.2,0.1,0.3c-1.9,2.8-5,5.4-9.5,5.4c-4.1,0-6.4-1.2-8.4-3c-2.4-2.1-3.5-5.8-3.5-8.6
		c0-3.1,1-6.1,3.3-8.6c1.7-1.9,4.5-3.4,8.3-3.4c2.9,0,5.3,0.9,6.5,1.5c0.4,0.3,0.6,0.3,0.6,0l0.3-0.8c0.1-0.2,0.1-0.2,0.5-0.2
		c0.4,0,0.4,0.1,0.4,0.5c0,0.6,0.6,5.7,0.8,6.7c0,0.2,0,0.3-0.1,0.3l-0.6,0.2c-0.2,0.1-0.3-0.1-0.4-0.3c-0.4-1.2-1.2-2.8-2.5-4.2
		c-1.4-1.3-3.1-2.4-5.6-2.4c-5.1,0-7.2,4.6-7.2,9.2c0,2,0.6,5.8,2.9,8.3c2.1,2.2,4,2.5,5.5,2.5c3.5,0,6.3-1.8,7.6-3.7
		c0.2-0.2,0.3-0.3,0.4-0.2L-74.8,427.4z"/>
	<path d="M-66.7,421.4c-0.4,0-0.4,0.1-0.4,0.4v1.4c0,1.2,0.1,4.9,0.1,7.1c0,0.8,0.4,1.1,1.1,1.1h1.2c0.3,0,0.3,0.1,0.3,0.2v0.7
		c0,0.2-0.1,0.3-0.3,0.3c-0.6,0-1.7-0.1-4.3-0.1c-3.1,0-4.1,0.1-4.7,0.1c-0.3,0-0.3-0.1-0.3-0.3v-0.7c0-0.2,0.1-0.3,0.3-0.3h1.7
		c0.8,0,0.9-0.8,0.9-1.5c0-1.5,0.1-5.2,0.1-7.2v-4.1c0-1-0.1-4.9-0.1-5.4c0-1.6-0.2-2-1.2-2h-1.4c-0.3,0-0.3-0.1-0.3-0.3v-0.7
		c0-0.1,0.1-0.3,0.3-0.3c0.6,0,1.6,0.1,4.7,0.1c2.9,0,4-0.1,4.6-0.1c0.3,0,0.3,0.1,0.3,0.3v0.7c0,0.2-0.1,0.3-0.3,0.3h-1.2
		c-1.2,0-1.3,0.5-1.3,1.8c0,0.4-0.2,4.7-0.2,5.5v1.3c0,0.3,0.1,0.4,0.4,0.4h10.6c0.5,0,0.6-0.1,0.6-0.4v-1c0-1.2-0.1-5.6-0.2-6
		c0-1-0.2-1.6-0.9-1.6h-1.5c-0.2,0-0.3-0.1-0.3-0.3v-0.7c0-0.2,0-0.3,0.3-0.3c0.6,0,2,0.1,4.5,0.1c2.4,0,3.7-0.1,4.2-0.1
		c0.3,0,0.4,0.1,0.4,0.3v0.7c0,0.2-0.1,0.3-0.4,0.3h-1.2c-1,0-1,0.5-1,1.6c0,0.4-0.1,4.8-0.1,5.8v3.5c0,1.4,0.1,6,0.1,7.8
		c0,1.2,0.3,1.6,1.3,1.6h1.3c0.2,0,0.3,0.1,0.3,0.2v0.7c0,0.2-0.1,0.3-0.3,0.3c-0.5,0-1.6-0.1-4.4-0.1c-3,0-4,0.1-4.9,0.1
		c-0.2,0-0.3-0.2-0.3-0.3v-0.7c0-0.2,0-0.3,0.3-0.3h1.7c0.8,0,0.8-0.6,0.8-1.4c0.1-1.5,0.1-6.7,0.1-7.2v-0.9c0-0.3-0.3-0.4-0.7-0.4
		H-66.7z"/>
	<path d="M-24.6,424.2c0,1.9,0.1,5.5,0.1,6c0.1,0.6,0.3,1.2,0.8,1.2h1.6c0.2,0,0.3,0.1,0.3,0.2v0.8c0,0.2-0.1,0.3-0.4,0.3
		c-0.4,0-1.1-0.1-4.4-0.1c-3.1,0-3.9,0.1-4.2,0.1c-0.2,0-0.3-0.1-0.3-0.3v-0.7c0-0.2,0.1-0.3,0.2-0.3h1.1c0.7,0,1.2-0.2,1.2-1.1
		c0.1-3.2,0.1-6.2,0.1-9.2v-8.4c0-1.1-0.4-1.6-1-1.6h-1.2c-0.2,0-0.2-0.1-0.2-0.2v-0.9c0-0.2,0.1-0.2,0.2-0.2c0.2,0,1.2,0.1,4.4,0.1
		c1.8,0,4.7-0.1,5.7-0.1c2.6,0,4.5,0.9,5.8,2c1.2,1,1.7,2.4,1.7,3.6c0,4-2.4,5.7-6,6.3v0.1c0.9,0.3,1.5,0.9,1.9,1.5
		c0.4,0.5,2.4,3.5,2.6,3.9c0.2,0.3,2.2,3.2,2.7,3.6c0.6,0.5,1.5,0.6,2.3,0.6c0.2,0,0.3,0.1,0.3,0.2v0.7c0,0.2-0.1,0.3-0.3,0.3
		c-0.3,0-1.1-0.1-3.1-0.1c-0.9,0-2.1,0.1-2.8,0.1c-0.4-0.3-1-1.2-1.4-1.8c-0.6-0.9-1.8-3.2-2.1-3.7c-0.3-0.6-1.2-2-1.7-2.8
		c-0.8-1.1-1.5-2-2.9-2c-0.1,0-0.7,0-1,0.1V424.2z M-24.5,421.3c0.4,0.1,0.8,0.1,1.2,0.1c5,0,6-4,6-5.5c0-1.5-0.6-2.8-1.4-3.6
		c-1.2-1-2.6-1.4-4.2-1.4c-0.5,0-0.9,0-1.2,0.2c-0.3,0.2-0.4,0.5-0.4,0.9L-24.5,421.3z"/>
	<path d="M-2.7,423.3c0,1.7,0.1,4.9,0.1,5.4c0,1.7,0.6,2.3,1.3,2.5c0.5,0.1,1.3,0.3,2.5,0.3c0.6,0,2-0.1,2.7-0.1
		c0.6-0.1,1.8-0.4,2.6-1.1c0.6-0.5,2.4-2.6,3-3.4c0.1-0.2,0.2-0.2,0.4-0.1l0.5,0.3c0.1,0.1,0.1,0.2,0.1,0.3l-1.5,4.8
		c-0.1,0.3-0.3,0.5-0.7,0.5c-0.2,0-0.9,0-2.8-0.1c-2,0-5.3,0-10.7,0c-1.2,0-2,0-2.7,0c-0.6,0-1.1,0.1-1.4,0.1
		c-0.2,0-0.3-0.1-0.3-0.3v-0.8c0-0.2,0.1-0.3,0.3-0.3h1.1c1.5,0,1.6-0.2,1.6-1.4v-7.6v-3.1c0-2.6-0.1-6.6-0.1-7
		c-0.1-0.9-0.4-1.1-1.4-1.1h-1.2c-0.1,0-0.2-0.1-0.2-0.2v-0.8c0-0.2,0-0.2,0.2-0.2c0.7,0,1.9,0.1,4.5,0.1H-4c1.4,0,8.8-0.1,10.2-0.1
		c0.5,0,1.1,0,1.3,0s0.2,0.1,0.3,0.2c0.1,0.4,1.3,4.8,1.5,5.1c0.1,0.2,0,0.3-0.1,0.4l-0.6,0.3c-0.1,0-0.2,0-0.3-0.2
		c-0.1-0.2-2.8-3.1-3.5-3.6c-0.7-0.4-1.5-0.8-2.4-0.8l-4.9-0.1l-0.1,9.2c1,0,3.3-0.1,3.6-0.2c0.7-0.1,1.1-0.4,1.5-1.2
		c0.2-0.4,0.5-1.2,0.5-1.8c0-0.2,0.1-0.3,0.3-0.3L4,417c0.1,0,0.2,0.1,0.2,0.3c-0.1,0.5-0.1,2.6-0.1,3.5c0,1.3,0.1,2.8,0.2,3.5
		c0,0.2-0.1,0.2-0.3,0.2l-0.7,0.1c-0.1,0-0.2,0-0.3-0.2c-0.1-0.5-0.4-1.2-0.5-1.6c-0.3-0.6-0.9-1.1-1.6-1.2
		c-1.2-0.1-2.7-0.2-3.7-0.2L-2.7,423.3z"/>
	<path d="M12.9,425.4c0.1,0,0.2,0.1,0.2,0.3c0.1,1,0.3,2.2,1.2,3.6c1,1.5,2.6,2.3,4.2,2.3c1.7,0,4.2-1.1,4.2-3.7
		c0-2.9-1.3-3.9-4.7-5.2c-1-0.4-3.1-1.3-4.7-2.7c-1.1-1-1.6-2.6-1.6-4.6c0-1.8,0.7-3.3,2.2-4.5c1.3-1.1,2.7-1.5,4.5-1.5
		c2.1,0,3.4,0.5,4,0.8c0.3,0.1,0.5,0.1,0.7-0.1l0.4-0.4c0.1-0.1,0.3-0.2,0.4-0.2s0.3,0.2,0.3,0.5c0,0.5,0.5,5,0.5,5.3
		c0,0.1-0.1,0.2-0.2,0.2l-0.5,0.2c-0.1,0-0.3,0-0.3-0.2c-0.3-0.9-0.8-2.2-2-3.4c-0.8-0.9-1.9-1.3-3.3-1.3c-2.6,0-3.6,2-3.6,3.2
		c0,1.1,0.1,2,0.9,2.9c0.8,0.8,2.6,1.6,3.9,2c1.9,0.6,3.4,1.2,4.6,2.5c1,1.1,1.6,2.4,1.6,4.6c0,3.9-2.6,7.1-6.8,7.1
		c-2.6,0-4.2-0.6-5.4-1.5c-0.4-0.3-0.6-0.4-0.8-0.4c-0.2,0-0.3,0.3-0.5,0.6c-0.2,0.3-0.3,0.4-0.6,0.4c-0.3,0-0.4-0.2-0.4-0.5
		c0.1-0.4,0.5-5.6,0.6-6c0-0.2,0.1-0.3,0.2-0.3L12.9,425.4z"/>
	<path d="M29.2,412.7c0-1.1-0.3-1.6-1.1-1.6h-1.5c-0.2,0-0.3-0.1-0.3-0.3v-0.7c0-0.2,0.1-0.3,0.3-0.3c0.3,0,1.9,0.1,4.9,0.1
		c2.7,0,4.2-0.1,4.6-0.1c0.2,0,0.3,0.1,0.3,0.2v0.8c0,0.2-0.1,0.3-0.3,0.3h-1.3c-1,0-1.5,0.6-1.6,1.2c0,0.4-0.1,2.3-0.1,4.2v4
		c0,1.6,0,3.9,0.1,4.9c0.1,1.5,0.4,2.9,1.1,4c1.1,1.5,2.8,2,4.4,2c1.5,0,3.3-0.6,4.3-1.5c1.2-1.2,1.9-3.1,1.9-5.4v-5.8
		c0-2.6-0.3-5.4-0.4-6.1c-0.1-0.8-0.6-1.4-1.3-1.4h-1.2c-0.2,0-0.3-0.1-0.3-0.2v-0.8c0-0.2,0.1-0.3,0.3-0.3c0.3,0,1.8,0.1,3.9,0.1
		c2,0,3-0.1,3.3-0.1c0.3,0,0.3,0.1,0.3,0.3v0.7c0,0.2,0,0.3-0.2,0.3h-1.2c-1.2,0-1.3,0.9-1.3,1.2c-0.1,0.4-0.1,4.9-0.1,5.3
		c0,0.4-0.1,6-0.2,7.3c-0.2,2.6-1,4.6-2.7,6.1c-1.3,1.2-3.4,2-5.8,2c-1.5,0-3.4-0.3-4.6-0.8c-1.9-0.8-3.1-2.2-3.8-4.3
		c-0.4-1.4-0.6-3.5-0.6-7.7V412.7z"/>
	<path d="M69.3,426c0.1,0.1,0.1,0.1,0.1,0.3c-0.1,0.2-1.4,5.5-1.6,6.4c-0.8,0-10-0.1-13.3-0.1c-2.9,0-4,0.1-4.4,0.1
		c-0.3,0-0.3-0.1-0.3-0.3v-0.7c0-0.2,0-0.3,0.2-0.3h1.3c1.2,0,1.3-0.4,1.3-0.9c0-0.6,0.1-8.6,0.1-10.5v-1.8c0-2-0.1-5.4-0.1-6
		c-0.1-0.8-0.2-1.2-1-1.2h-1.3c-0.2,0-0.3-0.2-0.3-0.3v-0.7c0-0.2,0.1-0.3,0.3-0.3c0.3,0,1.5,0.1,4.4,0.1c3.5,0,4.8-0.1,5.1-0.1
		c0.3,0,0.3,0.1,0.3,0.3v0.7c0,0.1-0.1,0.3-0.3,0.3H58c-1,0-1.1,0.3-1.1,1.2c0,0.4-0.1,5.2-0.1,7.5v2.8c0,0.6,0,7.5,0.1,8.9h1.8
		c1.8,0,4.1,0,5.4-0.2c1.8-0.3,3.8-4.1,4.3-5.3c0.1-0.1,0.2-0.2,0.4-0.1L69.3,426z"/>
	<path d="M78.1,411.3h-0.9c-1,0-3.3,0-4.7,0.4c-1,0.4-2.2,2.6-2.8,3.6c-0.1,0.2-0.2,0.3-0.4,0.2l-0.6-0.2c-0.1-0.1-0.2-0.2-0.1-0.3
		c0.3-1.2,1.4-5.4,1.5-5.9c0.1-0.4,0.3-0.6,0.4-0.6c0.2,0,0.3,0.1,0.5,0.3c0.6,0.6,1.3,0.8,2.2,0.8c1.7,0.1,3.1,0.2,6.2,0.2h1.7
		c3.5,0,4.9-0.1,6.3-0.2c0.6,0,1.8-0.5,2.3-0.8c0.3-0.2,0.4-0.3,0.6-0.3c0.2,0,0.3,0.1,0.3,0.5c0.1,0.6,0.7,4.5,1,6.1
		c0,0.2,0,0.3-0.1,0.3l-0.6,0.2c-0.1,0-0.2-0.1-0.3-0.3c-0.4-0.9-1.6-2.9-2.5-3.6c-0.9-0.5-3.8-0.6-4.9-0.6h-0.9v17.1
		c0,2.4,0.3,3.1,1.1,3.1h1.9c0.1,0,0.2,0.1,0.2,0.3v0.7c0,0.2-0.1,0.3-0.3,0.3c-0.3,0-1.3-0.1-4.8-0.1c-3.3,0-4.6,0.1-5.1,0.1
		c-0.2,0-0.3-0.1-0.3-0.3v-0.7c0-0.2,0.1-0.3,0.2-0.3h1.8c0.6,0,1-0.4,1.1-0.9c0.1-0.8,0.1-10.6,0.1-11.3V411.3z"/>
	<path d="M93.8,425.4c0.1,0,0.2,0.1,0.2,0.3c0.1,1,0.3,2.2,1.2,3.6c1,1.5,2.6,2.3,4.2,2.3c1.7,0,4.2-1.1,4.2-3.7
		c0-2.9-1.3-3.9-4.7-5.2c-1-0.4-3.1-1.3-4.7-2.7c-1.1-1-1.6-2.6-1.6-4.6c0-1.8,0.7-3.3,2.2-4.5c1.3-1.1,2.7-1.5,4.5-1.5
		c2.1,0,3.4,0.5,4,0.8c0.3,0.1,0.5,0.1,0.7-0.1l0.4-0.4c0.1-0.1,0.3-0.2,0.4-0.2s0.3,0.2,0.3,0.5c0,0.5,0.5,5,0.5,5.3
		c0,0.1-0.1,0.2-0.2,0.2l-0.5,0.2c-0.1,0-0.3,0-0.3-0.2c-0.3-0.9-0.8-2.2-2-3.4c-0.8-0.9-1.9-1.3-3.3-1.3c-2.6,0-3.6,2-3.6,3.2
		c0,1.1,0.1,2,0.9,2.9c0.8,0.8,2.6,1.6,3.9,2c1.9,0.6,3.4,1.2,4.6,2.5c1,1.1,1.6,2.4,1.6,4.6c0,3.9-2.6,7.1-6.8,7.1
		c-2.6,0-4.2-0.6-5.4-1.5c-0.4-0.3-0.6-0.4-0.8-0.4c-0.2,0-0.3,0.3-0.5,0.6c-0.2,0.3-0.3,0.4-0.6,0.4c-0.3,0-0.4-0.2-0.4-0.5
		c0.1-0.4,0.5-5.6,0.6-6c0-0.2,0.1-0.3,0.2-0.3L93.8,425.4z"/>
</g>
</svg>
